# Blender 3.5.1
# www.blender.org
mtllib Flag.mtl
o Flag.013
v 0.000000 -0.057859 -0.089138
v 0.000000 4.006978 -0.089138
v 0.077196 -0.057859 -0.044569
v 0.077196 4.006978 -0.044569
v 0.077196 -0.057859 0.044569
v 0.077196 4.006978 0.044569
v 0.000000 -0.057859 0.089138
v 0.000000 4.006978 0.089138
v -0.077196 -0.057859 0.044569
v -0.077196 4.006978 0.044569
v -0.077196 -0.057859 -0.044569
v -0.077196 4.006978 -0.044569
v 0.000000 2.931423 -0.089138
v 0.000000 3.911599 -0.089138
v 0.077196 3.911599 -0.044569
v 0.077196 2.931423 -0.044569
v 0.077196 3.911599 0.044569
v 0.077196 2.931423 0.044569
v 0.000000 3.911599 0.089138
v 0.000000 2.931423 0.089138
v -0.077196 3.911599 0.044569
v -0.077196 2.931423 0.044569
v -0.077196 3.911599 -0.044569
v -0.077196 2.931423 -0.044569
v 0.000000 3.061796 -0.089138
v 0.000000 3.781227 -0.089138
v 0.077196 3.781227 -0.044569
v 0.077196 3.061796 -0.044569
v 0.077196 3.781227 0.044569
v 0.077196 3.061796 0.044569
v 0.000000 3.781227 0.089138
v 0.000000 3.061796 0.089138
v -0.077196 3.781227 0.044569
v -0.077196 3.061796 0.044569
v -0.077196 3.781227 -0.044569
v -0.077196 3.061796 -0.044569
v 0.000000 3.783834 -0.106965
v 0.000000 3.908992 -0.106965
v -0.092635 3.908992 -0.053483
v -0.092635 3.908992 0.053483
v 0.000000 3.908992 0.106965
v 0.092635 3.908992 0.053483
v 0.092635 3.908992 -0.053483
v 0.092635 3.783834 -0.053483
v 0.092635 3.783834 0.053483
v 0.000000 3.783834 0.106965
v -0.092635 3.783834 0.053483
v -0.092635 3.783834 -0.053483
v 0.092635 3.059189 -0.053483
v 0.092635 2.934031 -0.053483
v 0.092635 3.059189 0.053483
v 0.092635 2.934031 0.053483
v 0.000000 3.059189 0.106965
v 0.000000 2.934031 0.106965
v -0.092635 3.059189 0.053483
v -0.092635 2.934031 0.053483
v -0.092635 3.059189 -0.053483
v -0.092635 2.934031 -0.053483
v 0.000000 2.934031 -0.106965
v 0.000000 3.059189 -0.106965
v 0.188654 3.908992 -0.053483
v 0.188653 3.908992 0.053483
v 0.188653 3.783834 -0.053483
v 0.188653 3.783834 0.053483
v 0.188653 3.059189 -0.053483
v 0.188654 2.934031 -0.053483
v 0.188653 3.059189 0.053483
v 0.188653 2.934031 0.053483
v 1.859456 3.944595 -0.107024
v 1.884517 3.944595 -0.003036
v 1.741139 3.809343 -0.078509
v 1.766200 3.809343 0.025479
v 1.797093 3.086987 -0.091994
v 1.934739 2.972714 -0.125167
v 1.822154 3.086987 0.011994
v 1.959800 2.972714 -0.021179
v 0.188654 3.421511 -0.053483
v 0.188654 3.421511 0.053483
v 1.336091 3.412675 0.019108
v 1.361152 3.412675 0.123096
v 0.585177 3.014842 -0.125276
v 1.105299 2.906511 0.013688
v 1.098149 2.906511 0.120414
v 0.565942 3.014842 -0.020054
v 0.574790 3.139553 -0.127174
v 1.095380 3.031274 0.013023
v 0.495418 3.861615 -0.032946
v 1.030803 3.753629 0.115902
v 1.020884 3.878392 0.115238
v 0.485031 3.986327 -0.034845
v 1.028034 3.878392 0.008512
v 0.504266 3.986327 -0.140066
v 0.555555 3.139553 -0.021953
v 1.088230 3.031274 0.119749
v 0.514652 3.861615 -0.138168
v 1.037952 3.753629 0.009176
v 0.525486 3.500584 -0.027449
v 1.059517 3.392452 0.117826
v 0.544721 3.500584 -0.132671
v 1.066666 3.392452 0.011100
v 1.426700 3.054576 0.107299
v 1.449342 2.930877 0.101842
v 1.300475 3.896727 0.137719
v 1.316054 3.772449 0.133964
v 1.275985 3.896774 0.033593
v 1.403334 2.929161 0.002902
v 1.291421 3.772484 0.029873
v 1.386063 3.053300 0.007065
vn 0.5000 -0.0000 -0.8660
vn 1.0000 -0.0000 -0.0000
vn 0.5000 -0.0000 0.8660
vn -0.5000 -0.0000 0.8660
vn -0.0000 1.0000 -0.0000
vn -1.0000 -0.0000 -0.0000
vn -0.5000 -0.0000 -0.8660
vn -0.0000 -1.0000 -0.0000
vn 0.0832 0.9860 -0.1442
vn -0.0832 -0.9860 0.1441
vn 0.0832 0.9860 0.1442
vn 0.1665 -0.9860 -0.0000
vn -0.1665 0.9860 -0.0000
vn -0.1665 -0.9860 -0.0000
vn -0.0833 -0.9860 -0.1443
vn -0.0832 0.9860 -0.1442
vn 0.0833 -0.9860 -0.1442
vn -0.0832 0.9860 0.1442
vn 0.0833 -0.9860 0.1443
vn -0.0832 -0.9860 -0.1442
vn 0.0832 -0.9860 -0.1441
vn 0.0832 -0.9860 0.1442
vn 0.1665 0.9860 -0.0000
vn -0.0000 -0.0000 1.0000
vn -0.0833 -0.9860 0.1442
vn 0.1666 -0.9860 -0.0000
vn -0.1666 -0.9860 -0.0000
vn -0.0383 0.0282 -0.9989
vn 0.0684 -0.9975 -0.0145
vn -0.0000 -0.0000 -1.0000
vn 0.7227 -0.6689 -0.1742
vn 0.6106 0.7782 -0.1471
vn -0.0703 -0.0196 0.9973
vn -0.0700 0.9975 0.0060
vn 0.6703 -0.7243 -0.1616
vn 0.0458 -0.0133 0.9989
vn 0.0124 -0.0177 0.9998
vn 0.0124 -0.0176 0.9998
vn 0.0784 0.0396 -0.9961
vn -0.2101 -0.0324 -0.9771
vn 0.0813 0.0012 -0.9967
vn 0.2476 0.0177 0.9687
vn 0.5504 0.8243 -0.1326
vn 0.2343 -0.0000 0.9722
vn -0.2674 -0.0119 0.9635
vn -0.2171 -0.0000 -0.9762
vn 0.2726 0.0081 -0.9621
vn -0.2343 -0.0000 -0.9722
vn 0.2631 0.0158 -0.9646
vn -0.2514 -0.0000 -0.9679
vn 0.2742 0.0167 -0.9615
vn 0.2134 0.0163 0.9768
vn 0.2133 0.0163 0.9768
vn -0.2619 -0.0114 0.9650
vn 0.1930 0.0155 0.9811
vn -0.2582 -0.0111 0.9660
vn -0.2511 0.9677 -0.0228
vn 0.1931 0.9809 0.0240
vn 0.2738 0.0187 0.9616
vn -0.2710 -0.0122 0.9625
vn 0.2094 -0.9778 -0.0000
vn -0.1961 -0.9805 -0.0131
vn -0.1782 -0.0000 -0.9840
vn 0.2611 0.0156 -0.9652
vn -0.0386 -0.0164 0.9991
vn -0.0772 0.9968 0.0186
vn 0.0772 -0.9968 -0.0186
vn 0.0299 -0.0029 -0.9995
vn -0.0832 -0.9860 0.1442
vn 0.0833 -0.9860 0.1442
vn 0.0832 -0.9860 0.1441
vn -0.0833 -0.9860 0.1443
vn 0.0459 -0.0133 0.9989
vn -0.2674 -0.0118 0.9635
vn -0.0833 -0.9860 -0.1442
vn 0.0833 -0.9860 -0.1443
vn -0.0832 -0.9860 -0.1441
vn 0.0832 -0.9860 -0.1442
vn -0.0200 -0.0069 -0.9998
vn 0.0760 -0.9971 0.0051
vn 0.1004 0.0027 -0.9949
vn -0.1875 -0.0000 -0.9823
vn 0.0272 0.0333 -0.9991
vn -0.2434 -0.0350 -0.9693
vn 0.2687 0.0162 -0.9631
vn 0.2670 0.0076 -0.9637
vn -0.2562 -0.0360 -0.9660
vn 0.2745 0.0082 -0.9616
vn 0.2061 -0.9778 0.0377
vn -0.1947 -0.9802 -0.0356
vn -0.1813 -0.0301 -0.9830
vn 0.2614 0.0071 -0.9652
vn -0.0228 0.0303 -0.9993
s 0
g Flag.013_Brown.004
usemtl Brown.004
f 2//1 15//1 14//1
f 4//2 17//2 15//2
f 6//3 19//3 17//3
f 8//4 21//4 19//4
f 8//5 6//5 2//5
f 10//6 23//6 21//6
f 12//7 14//7 23//7
f 3//8 7//8 11//8
f 24//7 1//7 11//7
f 22//6 11//6 9//6
f 20//4 9//4 7//4
f 18//3 7//3 5//3
f 16//2 5//2 3//2
f 13//1 3//1 1//1
f 26//1 28//1 25//1
f 27//2 30//2 28//2
f 29//3 32//3 30//3
f 31//4 34//4 32//4
f 33//6 36//6 34//6
f 35//7 25//7 36//7
f 4//2 6//2 17//2
f 6//3 8//3 19//3
f 8//4 10//4 21//4
f 6//5 4//5 2//5
f 2//5 12//5 10//5
f 10//5 8//5 2//5
f 20//4 22//4 9//4
f 18//3 20//3 7//3
f 29//3 31//3 32//3
f 31//4 33//4 34//4
f 2//1 4//1 15//1
f 10//6 12//6 23//6
f 12//7 2//7 14//7
f 11//8 1//8 3//8
f 3//8 5//8 7//8
f 7//8 9//8 11//8
f 24//7 13//7 1//7
f 22//6 24//6 11//6
f 16//2 18//2 5//2
f 13//1 16//1 3//1
f 26//1 27//1 28//1
f 27//2 29//2 30//2
f 33//6 35//6 36//6
f 35//7 26//7 25//7
g Flag.013_LightRed
usemtl LightRed
f 14//9 43//9 38//9
f 31//10 47//10 33//10
f 19//11 42//11 17//11
f 27//12 45//12 29//12
f 23//13 40//13 21//13
f 33//14 48//14 35//14
f 25//9 49//9 60//9
f 13//15 58//15 59//15
f 25//16 57//16 36//16
f 13//17 50//17 16//17
f 32//18 55//18 53//18
f 20//19 52//19 54//19
f 39//7 37//7 48//7
f 40//6 48//6 47//6
f 41//4 47//4 46//4
f 42//3 46//3 45//3
f 51//5 65//5 49//5
f 38//1 44//1 37//1
f 26//20 48//20 37//20
f 14//16 39//16 23//16
f 26//21 44//21 27//21
f 19//18 40//18 41//18
f 31//22 45//22 46//22
f 17//23 43//23 15//23
f 60//1 50//1 59//1
f 45//24 62//24 42//24
f 51//3 54//3 52//3
f 53//4 56//4 54//4
f 55//6 58//6 56//6
f 57//7 59//7 58//7
f 20//25 56//25 22//25
f 32//11 51//11 30//11
f 18//26 50//26 52//26
f 36//13 55//13 34//13
f 24//27 56//27 58//27
f 30//23 49//23 28//23
f 82//28 108//28 106//28
f 83//29 106//29 102//29
f 50//30 65//30 66//30
f 44//8 64//8 45//8
f 50//8 68//8 52//8
f 43//30 63//30 44//30
f 43//5 62//5 61//5
f 52//24 67//24 51//24
f 71//31 70//31 72//31
f 73//32 76//32 74//32
f 88//33 103//33 89//33
f 89//34 105//34 91//34
f 72//35 79//35 71//35
f 83//36 101//36 94//36
f 94//37 80//38 98//38
f 96//39 105//39 107//39
f 85//40 77//40 99//40
f 107//41 100//41 96//41
f 67//6 77//6 65//6
f 64//42 97//42 87//42
f 63//6 78//6 64//6
f 75//43 79//43 80//43
f 72//44 104//44 80//44
f 88//45 97//45 98//45
f 63//46 99//46 77//46
f 96//47 99//47 95//47
f 73//48 108//48 79//48
f 85//49 100//49 86//49
f 61//50 95//50 63//50
f 95//51 91//51 96//51
f 93//52 78//53 67//53
f 93//54 98//54 97//54
f 67//55 84//55 93//55
f 84//56 94//56 93//56
f 61//57 90//57 92//57
f 90//58 91//58 92//58
f 62//59 87//59 90//59
f 87//60 89//60 90//60
f 66//61 84//61 68//61
f 84//62 82//62 83//62
f 65//63 81//63 66//63
f 81//64 86//64 82//64
f 102//44 75//44 101//44
f 80//44 101//44 75//44
f 103//44 72//44 70//44
f 104//65 98//65 80//65
f 105//66 70//66 69//66
f 102//67 74//67 76//67
f 106//48 73//48 74//48
f 79//48 107//48 71//48
f 105//48 71//48 107//48
f 79//68 86//68 100//68
f 31//69 46//69 47//69
f 19//11 41//11 42//11
f 32//18 34//18 55//18
f 20//70 18//70 52//70
f 41//4 40//4 47//4
f 42//3 41//3 46//3
f 19//18 21//18 40//18
f 31//71 29//71 45//71
f 17//23 42//23 43//23
f 45//24 64//24 62//24
f 51//3 53//3 54//3
f 53//4 55//4 56//4
f 20//72 54//72 56//72
f 32//11 53//11 51//11
f 30//23 51//23 49//23
f 43//5 42//5 62//5
f 52//24 68//24 67//24
f 73//32 75//32 76//32
f 88//33 104//33 103//33
f 89//34 103//34 105//34
f 83//73 102//73 101//36
f 94//37 101//37 80//37
f 64//42 78//42 97//42
f 88//74 87//74 97//74
f 93//52 97//52 78//52
f 93//54 94//54 98//54
f 67//55 68//55 84//55
f 84//56 83//56 94//56
f 61//57 62//57 90//57
f 90//58 89//58 91//58
f 62//59 64//59 87//59
f 87//60 88//60 89//60
f 102//44 76//44 75//44
f 103//44 104//44 72//44
f 104//65 88//65 98//65
f 105//66 103//66 70//66
f 14//9 15//9 43//9
f 27//12 44//12 45//12
f 23//13 39//13 40//13
f 33//14 47//14 48//14
f 25//9 28//9 49//9
f 13//75 24//75 58//75
f 25//16 60//16 57//16
f 13//76 59//76 50//76
f 39//7 38//7 37//7
f 40//6 39//6 48//6
f 51//5 67//5 65//5
f 38//1 43//1 44//1
f 26//77 35//77 48//77
f 14//16 38//16 39//16
f 26//78 37//78 44//78
f 60//1 49//1 50//1
f 55//6 57//6 58//6
f 57//7 60//7 59//7
f 18//26 16//26 50//26
f 36//13 57//13 55//13
f 24//27 22//27 56//27
f 82//79 86//79 108//79
f 83//80 82//80 106//80
f 50//30 49//30 65//30
f 44//8 63//8 64//8
f 50//8 66//8 68//8
f 43//30 61//30 63//30
f 71//31 69//31 70//31
f 72//35 80//35 79//35
f 96//81 91//81 105//81
f 85//82 65//82 77//82
f 107//83 79//83 100//83
f 67//6 78//6 77//6
f 63//6 77//6 78//6
f 75//43 73//43 79//43
f 63//84 95//84 99//84
f 96//85 100//85 99//85
f 85//86 99//86 100//86
f 61//87 92//87 95//87
f 95//88 92//88 91//88
f 66//89 81//89 84//89
f 84//90 81//90 82//90
f 65//91 85//91 81//91
f 81//92 85//92 86//92
f 102//67 106//67 74//67
f 106//48 108//48 73//48
f 105//48 69//48 71//48
f 79//93 108//93 86//93
