# Blender 3.5.1
# www.blender.org
mtllib Grass.mtl
o Grass.004
v 0.338620 -0.010103 -0.034737
v 0.324934 0.203650 -0.034737
v 0.349630 0.111956 -0.034737
v -0.083135 -0.010103 -0.034737
v -0.121741 0.188785 -0.034737
v -0.101329 0.083886 -0.034737
v 0.117100 -0.010103 0.082036
v 0.149567 0.132695 0.082036
v 0.152213 0.235643 0.082036
v 0.094732 0.347133 0.082036
v -0.221142 -0.010103 0.072459
v -0.304276 0.453390 0.072459
v -0.272731 0.270023 0.072459
v 0.338620 -0.010103 -0.082036
v 0.324934 0.203650 -0.082036
v 0.349630 0.111956 -0.082036
v -0.083135 -0.010103 -0.082036
v -0.121741 0.188785 -0.082036
v -0.101329 0.083886 -0.082036
v 0.117100 -0.010103 0.034738
v 0.149567 0.132695 0.034738
v 0.152213 0.235643 0.034737
v 0.094732 0.347133 0.034737
v -0.221142 -0.010103 0.025161
v -0.304276 0.453390 0.025161
v -0.272731 0.270023 0.025161
v 0.387787 -0.010103 -0.058386
v 0.289453 -0.010103 -0.058386
v 0.307711 0.113145 -0.058386
v 0.391549 0.110767 -0.058386
v 0.324417 0.227453 -0.058386
v 0.289745 0.229830 -0.058386
v -0.033968 -0.010103 -0.058387
v -0.132302 -0.010103 -0.058387
v -0.143248 0.085075 -0.058387
v -0.059409 0.082697 -0.058387
v -0.105515 0.219619 -0.058387
v -0.140187 0.221997 -0.058387
v 0.181988 -0.010103 0.058387
v 0.052211 -0.010103 0.058387
v 0.086605 0.121683 0.058387
v 0.212530 0.143707 0.058387
v 0.106918 0.207093 0.058387
v 0.197508 0.264192 0.058387
v 0.095680 0.395225 0.058387
v 0.066126 0.360150 0.058387
v -0.171975 -0.010103 0.048810
v -0.270309 -0.010103 0.048810
v -0.313311 0.276960 0.048810
v -0.232152 0.263085 0.048810
v -0.278257 0.477675 0.048810
v -0.310250 0.491549 0.048810
v 0.375495 -0.010103 -0.040649
v 0.341372 0.068381 -0.034737
v 0.301745 -0.010103 -0.040650
v 0.348961 0.155736 -0.034737
v 0.318191 0.112848 -0.040650
v 0.381069 0.111065 -0.040650
v 0.324546 0.221502 -0.040650
v 0.298542 0.223285 -0.040650
v -0.046260 -0.010103 -0.040650
v -0.087683 0.040955 -0.034737
v -0.120010 -0.010103 -0.040650
v -0.115529 0.130537 -0.034737
v -0.132768 0.084778 -0.040650
v -0.069889 0.082995 -0.040650
v -0.109572 0.211911 -0.040650
v -0.135576 0.213694 -0.040650
v 0.165766 -0.010103 0.076124
v 0.125216 0.077048 0.082036
v 0.068433 -0.010103 0.076124
v 0.166463 0.184715 0.082036
v 0.102345 0.124436 0.076124
v 0.196789 0.140954 0.076124
v 0.122932 0.288706 0.082036
v 0.118242 0.214231 0.076124
v 0.186184 0.257055 0.076124
v 0.095443 0.383202 0.076124
v 0.073278 0.356896 0.076124
v -0.184267 -0.010103 0.066547
v -0.234039 0.154192 0.072459
v -0.258017 -0.010103 0.066547
v -0.306412 0.376325 0.072459
v -0.303166 0.275225 0.066547
v -0.242297 0.264820 0.066547
v -0.284762 0.471603 0.066547
v -0.308756 0.482009 0.066547
v 0.375495 -0.010103 -0.076123
v 0.341372 0.068381 -0.082036
v 0.301745 -0.010103 -0.076123
v 0.348961 0.155736 -0.082036
v 0.318191 0.112848 -0.076123
v 0.381069 0.111065 -0.076123
v 0.324546 0.221502 -0.076123
v 0.298542 0.223285 -0.076123
v -0.046260 -0.010103 -0.076124
v -0.087683 0.040955 -0.082036
v -0.120010 -0.010103 -0.076124
v -0.115529 0.130537 -0.082036
v -0.132768 0.084778 -0.076124
v -0.069889 0.082995 -0.076124
v -0.109572 0.211911 -0.076124
v -0.135576 0.213694 -0.076124
v 0.165766 -0.010103 0.040650
v 0.125216 0.077048 0.034738
v 0.068433 -0.010103 0.040650
v 0.166463 0.184715 0.034737
v 0.102345 0.124436 0.040650
v 0.196789 0.140954 0.040650
v 0.122932 0.288706 0.034737
v 0.118242 0.214231 0.040650
v 0.186184 0.257055 0.040650
v 0.095443 0.383202 0.040650
v 0.073278 0.356896 0.040650
v -0.184267 -0.010103 0.031073
v -0.234039 0.154192 0.025161
v -0.258017 -0.010103 0.031073
v -0.306412 0.376325 0.025161
v -0.303166 0.275225 0.031073
v -0.242297 0.264820 0.031073
v -0.284762 0.471603 0.031073
v -0.308756 0.482009 0.031073
v 0.388727 0.068083 -0.058386
v 0.294017 0.068678 -0.058386
v 0.376647 0.160200 -0.058386
v 0.312348 0.163767 -0.058386
v 0.280301 0.266128 -0.058387
v -0.040328 0.040658 -0.058387
v -0.135038 0.041252 -0.058387
v -0.083656 0.136760 -0.058387
v -0.147956 0.140326 -0.058387
v -0.124516 0.268843 -0.058387
v 0.189624 0.079801 0.058387
v 0.060809 0.074295 0.058387
v 0.224045 0.205617 0.058387
v 0.108880 0.163813 0.058387
v 0.149269 0.325404 0.058387
v 0.089680 0.267285 0.058387
v 0.060159 0.423519 0.058387
v -0.187019 0.152457 0.048810
v -0.281059 0.155926 0.048810
v -0.273766 0.373725 0.048810
v -0.334046 0.394537 0.048810
v -0.279221 0.531446 0.048810
v 0.376889 0.068158 -0.040649
v 0.305856 0.068604 -0.040650
v 0.369726 0.159084 -0.040650
v 0.321501 0.161759 -0.040650
v 0.297162 0.242526 -0.045248
v -0.052167 0.040732 -0.040650
v -0.123200 0.041178 -0.040650
v -0.091624 0.135204 -0.040650
v -0.139849 0.137879 -0.040650
v -0.123468 0.238599 -0.045248
v 0.173522 0.079112 0.076124
v 0.076911 0.074983 0.076124
v 0.209650 0.200392 0.076124
v 0.123275 0.169038 0.076124
v 0.142685 0.316229 0.076124
v 0.097993 0.272640 0.076124
v 0.073220 0.394662 0.071525
v -0.198774 0.152891 0.066547
v -0.269304 0.155492 0.066547
v -0.281928 0.374375 0.066547
v -0.327138 0.389984 0.066547
v -0.288686 0.501958 0.061948
v 0.376889 0.068158 -0.076123
v 0.305856 0.068604 -0.076123
v 0.369726 0.159084 -0.076123
v 0.321501 0.161759 -0.076123
v 0.297162 0.242526 -0.071525
v -0.052167 0.040732 -0.076124
v -0.123200 0.041178 -0.076124
v -0.091624 0.135204 -0.076124
v -0.139849 0.137879 -0.076124
v -0.123468 0.238599 -0.071525
v 0.173522 0.079112 0.040651
v 0.076911 0.074983 0.040650
v 0.209650 0.200392 0.040650
v 0.123275 0.169038 0.040650
v 0.142685 0.316229 0.040650
v 0.097993 0.272640 0.040650
v 0.073220 0.394662 0.045248
v -0.198774 0.152891 0.031073
v -0.269304 0.155492 0.031074
v -0.281928 0.374375 0.031073
v -0.327138 0.389984 0.031073
v -0.288686 0.501958 0.035672
vn 0.1583 -0.0056 0.9874
vn -0.1583 0.0083 0.9874
vn -0.2335 -0.1171 0.9653
vn 0.4077 0.2951 0.8641
vn 0.0216 0.3148 0.9489
vn 0.1843 -0.0179 0.9827
vn 0.2732 0.0042 0.9619
vn -0.1849 -0.0028 0.9828
vn -0.1838 0.0348 0.9824
vn 0.1643 0.0146 0.9863
vn -0.1583 -0.0141 0.9873
vn -0.2436 -0.0260 0.9695
vn 0.3179 0.0744 0.9452
vn 0.0164 0.2396 0.9707
vn 0.1861 0.0592 0.9807
vn 0.2268 0.0690 0.9715
vn -0.1861 -0.0566 0.9809
vn -0.1643 -0.0522 0.9850
vn 0.1206 -0.0112 0.9926
vn -0.1206 0.0120 0.9926
vn -0.1341 0.0587 0.9892
vn 0.1327 -0.0499 0.9899
vn 0.1315 -0.0427 0.9904
vn -0.1349 0.0633 0.9888
vn -0.1462 -0.0409 0.9884
vn 0.1365 0.0565 0.9890
vn 0.1277 0.0705 0.9893
vn -0.1412 -0.0490 0.9888
vn -0.1773 -0.0856 0.9804
vn 0.2179 0.1537 0.9638
vn -0.1928 0.1624 0.9677
vn 0.1658 0.0130 0.9861
vn -0.1583 -0.0124 0.9873
vn -0.2697 0.0075 0.9629
vn 0.2829 0.0082 0.9591
vn 0.0934 0.2154 0.9720
vn 0.2013 0.0673 0.9772
vn 0.2398 0.0760 0.9679
vn -0.2008 -0.0636 0.9776
vn -0.1671 -0.0558 0.9844
vn 0.1583 -0.0056 -0.9874
vn -0.1642 0.0058 -0.9864
vn -0.2944 -0.1099 -0.9493
vn 0.0216 0.3148 -0.9489
vn 0.2527 0.1267 -0.9592
vn 0.1640 -0.0311 -0.9860
vn -0.1838 0.0348 -0.9824
vn -0.1849 -0.0028 -0.9828
vn 0.1859 0.0439 -0.9816
vn 0.1583 0.0184 -0.9872
vn -0.1583 -0.0141 -0.9873
vn -0.3616 0.0204 -0.9321
vn 0.0164 0.2395 -0.9708
vn 0.2354 0.0251 -0.9716
vn 0.1861 0.0592 -0.9807
vn -0.1858 -0.0408 -0.9817
vn -0.1861 -0.0566 -0.9809
vn 0.1864 0.0776 -0.9794
vn 0.1206 -0.0112 -0.9926
vn -0.1220 0.0114 -0.9925
vn -0.1341 0.0587 -0.9892
vn -0.1532 0.0497 -0.9869
vn 0.1315 -0.0427 -0.9904
vn 0.1236 -0.0541 -0.9909
vn -0.1462 -0.0409 -0.9884
vn -0.1715 -0.0947 -0.9806
vn 0.1278 0.0705 -0.9893
vn 0.1233 0.0345 -0.9918
vn -0.3019 -0.0886 -0.9492
vn -0.1928 0.1624 -0.9677
vn 0.1755 0.0847 -0.9808
vn 0.1583 0.0141 -0.9873
vn -0.1583 -0.0124 -0.9873
vn -0.4991 0.0997 -0.8608
vn 0.0934 0.2154 -0.9720
vn 0.2342 -0.0065 -0.9722
vn 0.2013 0.0673 -0.9772
vn -0.1997 -0.0565 -0.9782
vn -0.2008 -0.0636 -0.9776
vn 0.2022 0.0732 -0.9766
vn 0.8218 -0.0146 0.5695
vn 0.8317 -0.0100 -0.5551
vn -0.8210 0.0476 0.5690
vn -0.8210 0.0476 -0.5690
vn -0.8355 0.2329 0.4976
vn -0.8820 0.0808 0.4643
vn -0.8591 0.0581 -0.5086
vn -0.8053 0.2480 -0.5385
vn 0.8351 0.2517 0.4892
vn 0.8591 -0.0568 0.5086
vn 0.8591 -0.0568 -0.5086
vn 0.8351 0.2517 -0.4892
vn 0.5602 0.7865 0.2598
vn 0.7744 0.6015 0.1962
vn 0.7745 0.6015 -0.1962
vn 0.5885 0.6713 -0.4507
vn -0.8931 -0.3056 0.3302
vn -0.7595 -0.1976 0.6197
vn -0.8881 0.0456 -0.4573
vn -0.8931 -0.3056 -0.3302
vn 0.8176 0.1024 0.5666
vn 0.8176 0.1024 -0.5666
vn -0.8310 -0.0443 0.5545
vn -0.8208 -0.0511 -0.5689
vn -0.8511 -0.1594 0.5002
vn -0.9108 -0.0776 0.4056
vn -0.8562 -0.1142 -0.5040
vn -0.8511 -0.1594 -0.5002
vn 0.8055 0.3612 0.4698
vn 0.7787 0.3535 0.5183
vn 0.8120 0.3405 -0.4741
vn 0.8055 0.3612 -0.4698
vn 0.7885 0.4774 0.3878
vn 0.9177 0.2421 0.3151
vn 0.9177 0.2421 -0.3151
vn 0.7447 0.2875 -0.6023
vn -0.9527 0.0906 0.2901
vn -0.7384 0.2470 0.6275
vn -0.7841 0.4584 -0.4184
vn -0.9527 0.0906 -0.2901
vn 0.7364 -0.0640 0.6735
vn 0.7401 -0.0629 -0.6695
vn -0.7358 0.0750 0.6730
vn -0.7358 0.0750 -0.6730
vn -0.7223 0.3715 0.5833
vn -0.7202 0.3808 0.5800
vn -0.7202 0.3808 -0.5800
vn -0.6929 0.3772 -0.6144
vn 0.7504 -0.1624 0.6407
vn 0.7412 -0.2657 0.6165
vn 0.7412 -0.2657 -0.6165
vn 0.7888 -0.1467 -0.5969
vn -0.8222 -0.0916 0.5618
vn -0.7785 -0.2229 0.5867
vn -0.7785 -0.2229 -0.5867
vn -0.7709 -0.0349 -0.6360
vn 0.6437 0.4732 0.6014
vn 0.7295 0.3305 0.5988
vn 0.7295 0.3305 -0.5988
vn 0.6700 0.5280 -0.5218
vn 0.2954 0.7890 0.5388
vn 0.7305 0.5607 0.3898
vn 0.7305 0.5607 -0.3898
vn 0.4194 0.5265 -0.7395
vn -0.9161 -0.2324 0.3268
vn -0.7836 -0.0738 0.6169
vn -0.9236 0.0449 -0.3807
vn -0.9161 -0.2324 -0.3268
vn 0.8196 0.0758 0.5680
vn 0.8196 0.0758 -0.5680
vn -0.8330 -0.0539 0.5507
vn -0.8206 -0.0559 -0.5687
vn -0.8547 -0.2277 0.4666
vn -0.9327 -0.1645 0.3210
vn -0.8614 -0.1799 -0.4751
vn -0.8547 -0.2277 -0.4666
vn 0.8369 0.3148 0.4479
vn 0.7924 0.3233 0.5173
vn 0.8344 0.3245 -0.4455
vn 0.8369 0.3148 -0.4479
vn 0.9032 0.1761 0.3915
vn 0.9335 0.0403 0.3562
vn 0.9335 0.0403 -0.3562
vn 0.7958 0.0143 -0.6054
vn -0.9505 0.2331 0.2055
vn -0.6136 0.4772 0.6291
vn -0.5893 0.6898 -0.4207
vn -0.9505 0.2331 -0.2055
vn 0.1642 -0.0029 0.9864
vn -0.1642 0.0058 0.9864
vn -0.2944 -0.1099 0.9493
vn 0.2527 0.1267 0.9592
vn 0.0160 0.2335 0.9722
vn 0.1639 -0.0311 0.9860
vn 0.1859 0.0439 0.9816
vn -0.2075 0.0140 0.9781
vn -0.1638 0.0457 0.9854
vn 0.1583 0.0184 0.9872
vn -0.1643 -0.0102 0.9864
vn -0.3617 0.0204 0.9321
vn 0.2354 0.0251 0.9716
vn 0.0121 0.1759 0.9843
vn 0.1643 0.0689 0.9840
vn 0.1864 0.0776 0.9794
vn -0.2454 -0.0327 0.9689
vn -0.1858 -0.0408 0.9817
vn 0.1219 -0.0106 0.9925
vn -0.1220 0.0114 0.9925
vn -0.1239 0.0637 0.9902
vn 0.1236 -0.0541 0.9909
vn 0.1469 -0.0318 0.9886
vn -0.1532 0.0497 0.9869
vn -0.1304 -0.0145 0.9914
vn 0.1232 0.0345 0.9918
vn 0.1454 0.1069 0.9836
vn -0.1715 -0.0946 0.9806
vn -0.3019 -0.0885 0.9492
vn 0.1755 0.0847 0.9808
vn -0.1418 0.1194 0.9827
vn 0.1583 0.0141 0.9873
vn -0.1657 -0.0113 0.9861
vn -0.4991 0.0997 0.8608
vn 0.2342 -0.0065 0.9722
vn 0.0686 0.1581 0.9850
vn 0.1673 0.0651 0.9838
vn 0.2022 0.0732 0.9766
vn -0.3134 -0.0655 0.9474
vn -0.1997 -0.0565 0.9782
vn 0.1642 -0.0029 -0.9864
vn -0.1583 0.0083 -0.9874
vn -0.2335 -0.1171 -0.9653
vn 0.0160 0.2335 -0.9722
vn 0.4077 0.2951 -0.8641
vn 0.1843 -0.0180 -0.9827
vn -0.1638 0.0457 -0.9854
vn -0.2075 0.0140 -0.9781
vn 0.2732 0.0042 -0.9619
vn 0.1643 0.0146 -0.9863
vn -0.1643 -0.0102 -0.9864
vn -0.2435 -0.0260 -0.9695
vn 0.0121 0.1759 -0.9843
vn 0.3179 0.0744 -0.9452
vn 0.1642 0.0689 -0.9840
vn -0.1643 -0.0522 -0.9850
vn -0.2454 -0.0327 -0.9689
vn 0.2268 0.0690 -0.9715
vn 0.1219 -0.0106 -0.9925
vn -0.1206 0.0120 -0.9926
vn -0.1239 0.0637 -0.9902
vn -0.1349 0.0633 -0.9888
vn 0.1469 -0.0318 -0.9886
vn 0.1327 -0.0499 -0.9899
vn -0.1305 -0.0145 -0.9913
vn -0.1412 -0.0490 -0.9888
vn 0.1454 0.1069 -0.9836
vn 0.1365 0.0565 -0.9890
vn -0.1773 -0.0856 -0.9804
vn -0.1417 0.1194 -0.9827
vn 0.2179 0.1537 -0.9638
vn 0.1658 0.0130 -0.9861
vn -0.1658 -0.0113 -0.9861
vn -0.2697 0.0075 -0.9629
vn 0.0686 0.1581 -0.9850
vn 0.2829 0.0082 -0.9591
vn 0.1673 0.0651 -0.9838
vn -0.1671 -0.0558 -0.9844
vn -0.3134 -0.0655 -0.9474
vn 0.2398 0.0760 -0.9679
vn 0.8317 -0.0100 0.5551
vn 0.8218 -0.0146 -0.5695
vn -0.8309 0.0434 0.5548
vn -0.8309 0.0434 -0.5548
vn -0.8053 0.2480 0.5386
vn -0.8591 0.0581 0.5086
vn -0.8820 0.0808 -0.4643
vn -0.8355 0.2329 -0.4976
vn 0.9054 0.2139 0.3668
vn 0.8289 -0.0807 0.5536
vn 0.8289 -0.0808 -0.5536
vn 0.9054 0.2139 -0.3667
vn 0.5885 0.6713 0.4507
vn 0.7639 0.5529 0.3329
vn 0.7639 0.5529 -0.3329
vn 0.5602 0.7865 -0.2598
vn -0.8563 -0.3195 0.4057
vn -0.8881 0.0456 0.4573
vn -0.7595 -0.1976 -0.6197
vn -0.8563 -0.3195 -0.4057
vn 0.8281 0.0962 0.5523
vn 0.8281 0.0962 -0.5523
vn -0.8208 -0.0511 0.5689
vn -0.8310 -0.0443 -0.5545
vn -0.8186 -0.1796 0.5456
vn -0.8562 -0.1142 0.5040
vn -0.9108 -0.0776 -0.4056
vn -0.8186 -0.1796 -0.5456
vn 0.8424 0.3507 0.4092
vn 0.8120 0.3405 0.4741
vn 0.7787 0.3535 -0.5183
vn 0.8424 0.3507 -0.4092
vn 0.7447 0.2875 0.6023
vn 0.8855 0.2072 0.4160
vn 0.8855 0.2072 -0.4160
vn 0.7885 0.4774 -0.3878
vn -0.9056 0.0510 0.4210
vn -0.7841 0.4584 0.4184
vn -0.7384 0.2470 -0.6275
vn -0.9056 0.0510 -0.4210
vn 0.7402 -0.0629 0.6695
vn 0.7364 -0.0640 -0.6735
vn -0.7398 0.0737 0.6688
vn -0.7398 0.0737 -0.6688
vn -0.6929 0.3772 0.6144
vn -0.7730 0.3627 0.5205
vn -0.7730 0.3627 -0.5205
vn -0.7223 0.3715 -0.5833
vn 0.7888 -0.1467 0.5969
vn 0.7181 -0.2702 0.6414
vn 0.7181 -0.2702 -0.6414
vn 0.7504 -0.1624 -0.6407
vn -0.7709 -0.0349 0.6360
vn -0.8308 -0.2880 0.4763
vn -0.8308 -0.2880 -0.4763
vn -0.8222 -0.0916 -0.5618
vn 0.6700 0.5280 0.5218
vn 0.6996 0.2897 0.6531
vn 0.6996 0.2897 -0.6531
vn 0.6437 0.4732 -0.6014
vn 0.4194 0.5265 0.7395
vn 0.7002 0.4939 0.5154
vn 0.7002 0.4939 -0.5154
vn 0.2954 0.7890 -0.5388
vn -0.8462 -0.2482 0.4715
vn -0.9236 0.0449 0.3807
vn -0.7836 -0.0738 -0.6169
vn -0.8462 -0.2482 -0.4715
vn 0.8321 0.0741 0.5497
vn 0.8321 0.0741 -0.5497
vn -0.8206 -0.0559 0.5687
vn -0.8329 -0.0539 -0.5507
vn -0.8138 -0.2301 0.5337
vn -0.8614 -0.1799 0.4751
vn -0.9327 -0.1645 -0.3210
vn -0.8138 -0.2301 -0.5337
vn 0.8669 0.3136 0.3874
vn 0.8344 0.3245 0.4455
vn 0.7924 0.3233 -0.5173
vn 0.8669 0.3136 -0.3874
vn 0.7958 0.0143 0.6054
vn 0.9085 0.0265 0.4171
vn 0.9085 0.0265 -0.4171
vn 0.9032 0.1761 -0.3915
vn -0.9002 0.1798 0.3967
vn -0.5893 0.6898 0.4206
vn -0.6136 0.4772 -0.6291
vn -0.9002 0.1798 -0.3967
s 0
g Grass.004_Green.008
usemtl Green.008
f 53//1 54//1 1//1
f 1//2 146//2 55//2
f 2//3 148//3 56//3
f 2//4 147//4 59//4
f 59//5 60//5 2//5
f 3//6 145//6 58//6
f 3//7 147//7 56//7
f 56//8 57//8 3//8
f 57//9 54//9 3//9
f 4//10 150//10 62//10
f 62//11 63//11 4//11
f 5//12 153//12 64//12
f 5//13 152//13 67//13
f 67//14 68//14 5//14
f 62//15 66//15 6//15
f 6//16 152//16 64//16
f 64//17 65//17 6//17
f 6//18 151//18 62//18
f 69//19 70//19 7//19
f 7//20 156//20 71//20
f 73//21 70//21 8//21
f 8//22 155//22 74//22
f 74//23 72//23 8//23
f 8//24 158//24 73//24
f 76//25 72//25 9//25
f 9//26 157//26 77//26
f 77//27 75//27 9//27
f 9//28 160//28 76//28
f 10//29 160//29 75//29
f 10//30 159//30 78//30
f 78//31 79//31 10//31
f 11//32 162//32 81//32
f 81//33 82//33 11//33
f 12//34 165//34 83//34
f 12//35 164//35 86//35
f 86//36 87//36 12//36
f 81//37 85//37 13//37
f 13//38 164//38 83//38
f 83//39 84//39 13//39
f 13//40 163//40 81//40
f 89//41 88//41 14//41
f 14//42 168//42 89//42
f 15//43 170//43 95//43
f 95//44 94//44 15//44
f 15//45 169//45 91//45
f 16//46 167//46 89//46
f 89//47 92//47 16//47
f 92//48 91//48 16//48
f 16//49 169//49 93//49
f 17//50 172//50 96//50
f 98//51 97//51 17//51
f 18//52 175//52 103//52
f 103//53 102//53 18//53
f 18//54 174//54 99//54
f 101//55 97//55 19//55
f 19//56 173//56 100//56
f 100//57 99//57 19//57
f 19//58 174//58 101//58
f 105//59 104//59 20//59
f 20//60 178//60 105//60
f 105//61 108//61 21//61
f 21//62 180//62 107//62
f 107//63 109//63 21//63
f 21//64 177//64 105//64
f 107//65 111//65 22//65
f 22//66 182//66 110//66
f 110//67 112//67 22//67
f 22//68 179//68 107//68
f 23//69 182//69 114//69
f 114//70 113//70 23//70
f 23//71 181//71 110//71
f 24//72 184//72 115//72
f 117//73 116//73 24//73
f 25//74 187//74 122//74
f 122//75 121//75 25//75
f 25//76 186//76 118//76
f 120//77 116//77 26//77
f 26//78 185//78 119//78
f 119//79 118//79 26//79
f 26//80 186//80 120//80
f 27//81 145//81 53//81
f 27//82 167//82 123//82
f 55//83 124//83 28//83
f 124//84 90//84 28//84
f 29//85 146//85 57//85
f 29//86 148//86 126//86
f 29//87 170//87 92//87
f 29//88 168//88 124//88
f 125//89 58//89 30//89
f 58//90 123//90 30//90
f 123//91 93//91 30//91
f 93//92 125//92 30//92
f 31//93 149//93 59//93
f 59//94 125//94 31//94
f 125//95 94//95 31//95
f 31//96 171//96 127//96
f 126//97 60//97 32//97
f 32//98 149//98 127//98
f 32//99 171//99 95//99
f 95//100 126//100 32//100
f 128//101 61//101 33//101
f 96//102 128//102 33//102
f 34//103 151//103 129//103
f 34//104 173//104 98//104
f 129//105 65//105 35//105
f 35//106 153//106 131//106
f 35//107 175//107 100//107
f 100//108 129//108 35//108
f 130//109 66//109 36//109
f 36//110 150//110 128//110
f 36//111 172//111 101//111
f 101//112 130//112 36//112
f 37//113 154//113 67//113
f 67//114 130//114 37//114
f 130//115 102//115 37//115
f 37//116 176//116 132//116
f 131//117 68//117 38//117
f 38//118 154//118 132//118
f 38//119 176//119 103//119
f 103//120 131//120 38//120
f 39//121 155//121 69//121
f 39//122 177//122 133//122
f 71//123 134//123 40//123
f 134//124 106//124 40//124
f 41//125 156//125 73//125
f 73//126 136//126 41//126
f 136//127 108//127 41//127
f 41//128 178//128 134//128
f 42//129 157//129 74//129
f 74//130 133//130 42//130
f 133//131 109//131 42//131
f 42//132 179//132 135//132
f 43//133 158//133 76//133
f 76//134 138//134 43//134
f 138//135 111//135 43//135
f 43//136 180//136 136//136
f 44//137 159//137 77//137
f 77//138 135//138 44//138
f 135//139 112//139 44//139
f 44//140 181//140 137//140
f 45//141 161//141 78//141
f 78//142 137//142 45//142
f 137//143 113//143 45//143
f 45//144 183//144 139//144
f 138//145 79//145 46//145
f 46//146 161//146 139//146
f 46//147 183//147 114//147
f 114//148 138//148 46//148
f 140//149 80//149 47//149
f 115//150 140//150 47//150
f 48//151 163//151 141//151
f 48//152 185//152 117//152
f 141//153 84//153 49//153
f 49//154 165//154 143//154
f 49//155 187//155 119//155
f 119//156 141//156 49//156
f 142//157 85//157 50//157
f 50//158 162//158 140//158
f 50//159 184//159 120//159
f 120//160 142//160 50//160
f 51//161 166//161 86//161
f 86//162 142//162 51//162
f 142//163 121//163 51//163
f 51//164 188//164 144//164
f 143//165 87//165 52//165
f 52//166 166//166 144//166
f 52//167 188//167 122//167
f 122//168 143//168 52//168
f 53//169 145//169 54//169
f 1//170 54//170 146//170
f 2//171 60//171 148//171
f 2//172 56//172 147//172
f 59//173 149//173 60//173
f 3//174 54//174 145//174
f 3//175 58//175 147//175
f 56//176 148//176 57//176
f 57//177 146//177 54//177
f 4//178 61//178 150//178
f 62//179 151//179 63//179
f 5//180 68//180 153//180
f 5//181 64//181 152//181
f 67//182 154//182 68//182
f 62//183 150//183 66//183
f 6//184 66//184 152//184
f 64//185 153//185 65//185
f 6//186 65//186 151//186
f 69//187 155//187 70//187
f 7//188 70//188 156//188
f 73//189 156//189 70//189
f 8//190 70//190 155//190
f 74//191 157//191 72//191
f 8//192 72//192 158//192
f 76//193 158//193 72//193
f 9//194 72//194 157//194
f 77//195 159//195 75//195
f 9//196 75//196 160//196
f 10//197 79//197 160//197
f 10//198 75//198 159//198
f 78//199 161//199 79//199
f 11//200 80//200 162//200
f 81//201 163//201 82//201
f 12//202 87//202 165//202
f 12//203 83//203 164//203
f 86//204 166//204 87//204
f 81//205 162//205 85//205
f 13//206 85//206 164//206
f 83//207 165//207 84//207
f 13//208 84//208 163//208
f 89//209 167//209 88//209
f 14//210 90//210 168//210
f 15//211 91//211 170//211
f 95//212 171//212 94//212
f 15//213 94//213 169//213
f 16//214 93//214 167//214
f 89//215 168//215 92//215
f 92//216 170//216 91//216
f 16//217 91//217 169//217
f 17//218 97//218 172//218
f 98//219 173//219 97//219
f 18//220 99//220 175//220
f 103//221 176//221 102//221
f 18//222 102//222 174//222
f 101//223 172//223 97//223
f 19//224 97//224 173//224
f 100//225 175//225 99//225
f 19//226 99//226 174//226
f 105//227 177//227 104//227
f 20//228 106//228 178//228
f 105//229 178//229 108//229
f 21//230 108//230 180//230
f 107//231 179//231 109//231
f 21//232 109//232 177//232
f 107//233 180//233 111//233
f 22//234 111//234 182//234
f 110//235 181//235 112//235
f 22//236 112//236 179//236
f 23//237 110//237 182//237
f 114//238 183//238 113//238
f 23//239 113//239 181//239
f 24//240 116//240 184//240
f 117//241 185//241 116//241
f 25//242 118//242 187//242
f 122//243 188//243 121//243
f 25//244 121//244 186//244
f 120//245 184//245 116//245
f 26//246 116//246 185//246
f 119//247 187//247 118//247
f 26//248 118//248 186//248
f 27//249 123//249 145//249
f 27//250 88//250 167//250
f 55//251 146//251 124//251
f 124//252 168//252 90//252
f 29//253 124//253 146//253
f 29//254 57//254 148//254
f 29//255 126//255 170//255
f 29//256 92//256 168//256
f 125//257 147//257 58//257
f 58//258 145//258 123//258
f 123//259 167//259 93//259
f 93//260 169//260 125//260
f 31//261 127//261 149//261
f 59//262 147//262 125//262
f 125//263 169//263 94//263
f 31//264 94//264 171//264
f 126//265 148//265 60//265
f 32//266 60//266 149//266
f 32//267 127//267 171//267
f 95//268 170//268 126//268
f 128//269 150//269 61//269
f 96//270 172//270 128//270
f 34//271 63//271 151//271
f 34//272 129//272 173//272
f 129//273 151//273 65//273
f 35//274 65//274 153//274
f 35//275 131//275 175//275
f 100//276 173//276 129//276
f 130//277 152//277 66//277
f 36//278 66//278 150//278
f 36//279 128//279 172//279
f 101//280 174//280 130//280
f 37//281 132//281 154//281
f 67//282 152//282 130//282
f 130//283 174//283 102//283
f 37//284 102//284 176//284
f 131//285 153//285 68//285
f 38//286 68//286 154//286
f 38//287 132//287 176//287
f 103//288 175//288 131//288
f 39//289 133//289 155//289
f 39//290 104//290 177//290
f 71//291 156//291 134//291
f 134//292 178//292 106//292
f 41//293 134//293 156//293
f 73//294 158//294 136//294
f 136//295 180//295 108//295
f 41//296 108//296 178//296
f 42//297 135//297 157//297
f 74//298 155//298 133//298
f 133//299 177//299 109//299
f 42//300 109//300 179//300
f 43//301 136//301 158//301
f 76//302 160//302 138//302
f 138//303 182//303 111//303
f 43//304 111//304 180//304
f 44//305 137//305 159//305
f 77//306 157//306 135//306
f 135//307 179//307 112//307
f 44//308 112//308 181//308
f 45//309 139//309 161//309
f 78//310 159//310 137//310
f 137//311 181//311 113//311
f 45//312 113//312 183//312
f 138//313 160//313 79//313
f 46//314 79//314 161//314
f 46//315 139//315 183//315
f 114//316 182//316 138//316
f 140//317 162//317 80//317
f 115//318 184//318 140//318
f 48//319 82//319 163//319
f 48//320 141//320 185//320
f 141//321 163//321 84//321
f 49//322 84//322 165//322
f 49//323 143//323 187//323
f 119//324 185//324 141//324
f 142//325 164//325 85//325
f 50//326 85//326 162//326
f 50//327 140//327 184//327
f 120//328 186//328 142//328
f 51//329 144//329 166//329
f 86//330 164//330 142//330
f 142//331 186//331 121//331
f 51//332 121//332 188//332
f 143//333 165//333 87//333
f 52//334 87//334 166//334
f 52//335 144//335 188//335
f 122//336 187//336 143//336
