# Blender 3.5.1
# www.blender.org
mtllib Platform_BottomMiddle.mtl
o Platform_BottomMiddle.050
v -1.000000 0.301556 1.433895
v -1.000000 0.999999 1.562632
v -1.000000 -0.495029 1.126631
v -0.506901 0.301556 1.433895
v -1.000000 0.301556 -1.433895
v -0.506901 0.301556 -1.433895
v -1.000000 -0.495029 -1.126632
v -1.000000 0.999999 -1.562633
v -1.000000 -0.898545 -0.614527
v -1.000000 -0.999999 0.000000
v -0.506901 -0.898547 -0.614527
v -1.000000 -0.898547 0.614526
v -0.506901 -0.898547 0.614526
v -0.506900 0.999999 1.562632
v -0.506900 0.999999 -1.562633
v -0.506901 -0.999999 0.000000
v -0.506901 -0.495029 -1.126632
v -0.506901 -0.495029 1.126631
v 0.999999 0.301556 1.433895
v 0.999999 0.999999 1.562632
v 0.999999 -0.495029 1.126631
v 0.446913 0.301556 1.433895
v 0.999999 0.301556 -1.433895
v 0.446913 0.301556 -1.433895
v 0.999999 -0.495029 -1.126632
v 0.999999 0.999999 -1.562633
v 0.999999 -0.898545 -0.614527
v 0.999999 -0.999999 0.000000
v 0.446913 -0.898547 -0.614527
v 0.999999 -0.898547 0.614526
v 0.446913 -0.898547 0.614526
v -0.029994 -0.898547 0.614526
v -0.029994 -0.495029 1.126631
v -0.029994 -0.999999 0.000000
v -0.029994 -0.898545 -0.614527
v -0.029994 -0.495029 -1.126632
v -0.029994 0.301556 -1.433895
v -0.029994 0.999999 -1.562633
v -0.029994 0.301556 1.433895
v -0.029994 0.999999 1.562632
v 0.446913 0.999999 1.562632
v 0.446913 0.999999 -1.562633
v 0.446914 -0.999999 0.000000
v 0.446913 -0.495029 -1.126632
v 0.446913 -0.495029 1.126631
vn -0.0000 -0.1813 0.9834
vn -0.0000 -0.3599 0.9330
vn -0.0000 -0.1813 -0.9834
vn -0.0000 -0.3599 -0.9330
vn -0.0000 -0.9866 -0.1629
vn -0.0000 -0.7855 -0.6189
vn -0.0000 -0.9866 0.1629
vn -0.0000 -0.7855 0.6189
vn -1.0000 -0.0000 -0.0000
vn -0.0000 1.0000 -0.0000
vn 1.0000 -0.0000 -0.0000
s 0
g Platform_BottomMiddle.050_LightBrown.007
usemtl LightBrown.007
f 4//1 2//1 1//1
f 3//2 4//2 1//2
f 8//3 6//3 5//3
f 6//4 7//4 5//4
f 11//5 10//5 9//5
f 9//6 17//6 11//6
f 10//7 13//7 12//7
f 13//8 3//8 12//8
f 33//8 13//8 32//8
f 13//7 34//7 32//7
f 34//5 11//5 35//5
f 35//6 17//6 36//6
f 36//4 6//4 37//4
f 37//3 15//3 38//3
f 39//1 14//1 4//1
f 4//2 33//2 39//2
f 20//1 22//1 19//1
f 22//2 21//2 19//2
f 24//3 26//3 23//3
f 25//4 24//4 23//4
f 27//5 43//5 29//5
f 27//6 44//6 25//6
f 30//7 43//7 28//7
f 21//8 31//8 30//8
f 31//8 33//8 32//8
f 34//7 31//7 32//7
f 29//5 34//5 35//5
f 35//6 44//6 29//6
f 24//4 36//4 37//4
f 38//3 24//3 37//3
f 22//1 40//1 39//1
f 33//2 22//2 39//2
f 2//9 5//9 1//9
f 40//10 15//10 14//10
f 20//11 23//11 26//11
f 41//10 26//10 42//10
f 40//10 42//10 38//10
f 8//10 14//10 15//10
f 5//9 3//9 1//9
f 3//9 9//9 12//9
f 12//9 9//9 10//9
f 23//11 21//11 25//11
f 21//11 27//11 25//11
f 27//11 30//11 28//11
f 21//11 30//11 27//11
f 4//1 14//1 2//1
f 3//2 18//2 4//2
f 8//3 15//3 6//3
f 6//4 17//4 7//4
f 11//5 16//5 10//5
f 9//6 7//6 17//6
f 10//7 16//7 13//7
f 13//8 18//8 3//8
f 33//8 18//8 13//8
f 13//7 16//7 34//7
f 34//5 16//5 11//5
f 35//6 11//6 17//6
f 36//4 17//4 6//4
f 37//3 6//3 15//3
f 39//1 40//1 14//1
f 4//2 18//2 33//2
f 20//1 41//1 22//1
f 22//2 45//2 21//2
f 24//3 42//3 26//3
f 25//4 44//4 24//4
f 27//5 28//5 43//5
f 27//6 29//6 44//6
f 30//7 31//7 43//7
f 21//8 45//8 31//8
f 31//8 45//8 33//8
f 34//7 43//7 31//7
f 29//5 43//5 34//5
f 35//6 36//6 44//6
f 24//4 44//4 36//4
f 38//3 42//3 24//3
f 22//1 41//1 40//1
f 33//2 45//2 22//2
f 2//9 8//9 5//9
f 40//10 38//10 15//10
f 20//11 19//11 23//11
f 41//10 20//10 26//10
f 40//10 41//10 42//10
f 8//10 2//10 14//10
f 5//9 7//9 3//9
f 3//9 7//9 9//9
f 23//11 19//11 21//11
