# Blender 3.5.1
# www.blender.org
mtllib Platform_CenterLeft.mtl
o Platform_CenterLeft.056
v 0.031826 0.999998 1.562631
v -0.564018 0.999998 1.388373
v -0.773948 0.999998 0.594610
v -0.773948 0.999998 -0.594611
v -0.564018 0.999998 -1.388374
v 0.031825 0.999998 -1.562632
v 1.000000 0.999998 1.562631
v 1.000000 0.999998 -1.562632
v -0.361690 0.999998 1.562631
v 0.511407 0.999998 1.562631
v -0.695131 0.999998 1.090356
v -0.800284 0.999998 -0.000000
v -0.695131 0.999998 -1.090357
v -0.361690 0.999998 -1.562632
v 0.511407 0.999998 -1.562632
v 0.031826 -0.999998 1.562631
v -0.564017 -0.999998 1.388373
v -0.773947 -0.999998 0.594610
v -0.773947 -0.999998 -0.594611
v -0.564018 -0.999998 -1.388374
v 0.031826 -0.999998 -1.562632
v 1.000000 -0.999998 1.562631
v 1.000000 -0.999998 -1.562632
v -0.361690 -0.999998 1.562631
v 0.511408 -0.999998 1.562631
v -0.695130 -0.999998 1.090356
v -0.800283 -0.999998 0.000000
v -0.695130 -0.999998 -1.090357
v -0.361690 -0.999998 -1.562632
v 0.511408 -0.999998 -1.562632
vn -0.9990 -0.0000 -0.0442
vn -0.0000 -0.0000 1.0000
vn -0.9876 -0.0000 0.1570
vn -0.9990 -0.0000 0.0442
vn -0.9153 -0.0000 0.4027
vn -0.6526 -0.0000 0.7577
vn -0.0000 -0.0000 -1.0000
vn -0.9153 -0.0000 -0.4027
vn -0.6526 -0.0000 -0.7577
vn -0.9876 -0.0000 -0.1570
vn 1.0000 -0.0000 -0.0000
vn -0.0000 1.0000 -0.0000
vn -0.0000 -1.0000 -0.0000
s 0
g Platform_CenterLeft.056_LightBrown.005
usemtl LightBrown.005
f 4//1 27//1 12//1
f 7//2 25//2 22//2
f 3//3 26//3 11//3
f 12//4 18//4 3//4
f 2//5 26//5 17//5
f 2//6 24//6 9//6
f 1//2 25//2 10//2
f 15//7 21//7 6//7
f 9//2 16//2 1//2
f 6//7 29//7 14//7
f 5//8 28//8 13//8
f 8//7 30//7 15//7
f 14//9 20//9 5//9
f 4//10 28//10 19//10
f 22//11 8//11 7//11
f 14//12 12//12 11//12
f 17//13 19//13 20//13
f 7//12 15//12 10//12
f 1//12 15//12 6//12
f 9//12 6//12 14//12
f 23//13 25//13 30//13
f 30//13 16//13 21//13
f 21//13 24//13 29//13
f 4//1 19//1 27//1
f 7//2 10//2 25//2
f 3//3 18//3 26//3
f 12//4 27//4 18//4
f 2//5 11//5 26//5
f 2//6 17//6 24//6
f 1//2 16//2 25//2
f 15//7 30//7 21//7
f 9//2 24//2 16//2
f 6//7 21//7 29//7
f 5//8 20//8 28//8
f 8//7 23//7 30//7
f 14//9 29//9 20//9
f 4//10 13//10 28//10
f 22//11 23//11 8//11
f 2//12 9//12 14//12
f 14//12 5//12 13//12
f 13//12 4//12 12//12
f 12//12 3//12 11//12
f 11//12 2//12 14//12
f 14//12 13//12 12//12
f 29//13 24//13 17//13
f 17//13 26//13 18//13
f 18//13 27//13 19//13
f 19//13 28//13 20//13
f 20//13 29//13 17//13
f 17//13 18//13 19//13
f 7//12 8//12 15//12
f 1//12 10//12 15//12
f 9//12 1//12 6//12
f 23//13 22//13 25//13
f 30//13 25//13 16//13
f 21//13 16//13 24//13
